<?xml version="1.0" encoding="utf-8"?>
<!-- Generator: Adobe Illustrator 16.0.0, SVG Export Plug-In . SVG Version: 6.00 Build 0)  -->
<svg version="1.2" baseProfile="tiny" id="Layer_1" xmlns="http://www.w3.org/2000/svg" xmlns:xlink="http://www.w3.org/1999/xlink"
	 x="0px" y="0px" width="276.6px" height="37.51px" viewBox="0 0 276.6 37.51" xml:space="preserve">
<path fill="#FFFFFF" d="M92.47,9.18H81.1v6.12h10.47c0.771,0,1.342,0.17,1.722,0.52c0.38,0.34,0.568,0.8,0.568,1.37
	c0,0.56-0.188,1.03-0.56,1.38c-0.37,0.36-0.95,0.54-1.73,0.54H81.1v7.09h11.76c0.79,0,1.392,0.18,1.79,0.55
	c0.4,0.37,0.602,0.86,0.602,1.47c0,0.59-0.2,1.07-0.602,1.44c-0.398,0.37-1,0.55-1.79,0.55H79.15c-1.1,0-1.89-0.24-2.37-0.73
	c-0.479-0.488-0.72-1.27-0.72-2.358V8.38c0-0.73,0.11-1.32,0.32-1.78c0.22-0.46,0.55-0.79,1.01-1s1.04-0.31,1.76-0.31h13.32
	c0.8,0,1.4,0.18,1.79,0.54s0.59,0.82,0.59,1.4c0,0.59-0.2,1.06-0.59,1.42C93.88,9,93.28,9.18,92.47,9.18z"/>
<path fill="#FFFFFF" d="M102.27,14.32v0.56c0.812-1.08,1.71-1.87,2.682-2.37c0.97-0.5,2.078-0.76,3.34-0.76
	c1.22,0,2.318,0.27,3.278,0.8c0.96,0.53,1.682,1.29,2.16,2.26c0.312,0.57,0.5,1.18,0.59,1.83c0.092,0.66,0.142,1.5,0.142,2.52v8.63
	c0,0.93-0.21,1.63-0.642,2.109c-0.42,0.479-0.979,0.721-1.658,0.721c-0.69,0-1.25-0.25-1.682-0.73c-0.43-0.49-0.648-1.18-0.648-2.09
	v-7.73c0-1.528-0.21-2.698-0.642-3.508c-0.42-0.81-1.27-1.21-2.54-1.21c-0.83,0-1.58,0.25-2.26,0.74c-0.68,0.49-1.18,1.17-1.5,2.03
	c-0.229,0.69-0.34,1.979-0.34,3.88v5.811c0,0.939-0.22,1.649-0.65,2.121c-0.43,0.469-1,0.709-1.688,0.709
	c-0.67,0-1.221-0.25-1.65-0.729c-0.43-0.49-0.648-1.181-0.648-2.091V14.39c0-0.88,0.188-1.54,0.579-1.98s0.909-0.66,1.579-0.66
	c0.41,0,0.78,0.1,1.102,0.29c0.33,0.19,0.59,0.48,0.79,0.87C102.17,13.3,102.27,13.77,102.27,14.32z"/>
<path fill="#FFFFFF" d="M118.45,12.17h0.51V9.38c0-0.75,0.02-1.33,0.06-1.76c0.04-0.42,0.15-0.79,0.33-1.1
	c0.18-0.32,0.44-0.58,0.78-0.77c0.34-0.2,0.72-0.3,1.14-0.3c0.59,0,1.12,0.22,1.602,0.66c0.318,0.29,0.52,0.65,0.6,1.08
	c0.08,0.42,0.13,1.03,0.13,1.81v3.16h1.7c0.66,0,1.16,0.16,1.5,0.47c0.35,0.31,0.52,0.71,0.52,1.2c0,0.62-0.25,1.06-0.738,1.31
	c-0.49,0.25-1.2,0.37-2.12,0.37h-0.87v8.53c0,0.73,0.03,1.279,0.08,1.67s0.188,0.71,0.41,0.95c0.22,0.239,0.58,0.36,1.08,0.36
	c0.27,0,0.64-0.052,1.1-0.142c0.46-0.101,0.83-0.14,1.09-0.14c0.37,0,0.71,0.148,1.01,0.449c0.302,0.301,0.45,0.67,0.45,1.109
	c0,0.75-0.41,1.32-1.22,1.721c-0.82,0.399-1.99,0.601-3.521,0.601c-1.448,0-2.55-0.25-3.3-0.729c-0.75-0.49-1.24-1.16-1.47-2.021
	c-0.23-0.86-0.35-2.011-0.35-3.45v-8.9h-0.61c-0.67,0-1.18-0.16-1.53-0.48c-0.35-0.32-0.53-0.72-0.53-1.21
	c0-0.49,0.182-0.89,0.552-1.2C117.21,12.32,117.75,12.17,118.45,12.17z"/>
<path fill="#FFFFFF" d="M132.86,9.6c-0.648,0-1.198-0.2-1.658-0.59c-0.46-0.4-0.69-0.96-0.69-1.68c0-0.66,0.23-1.2,0.71-1.62
	c0.47-0.43,1.021-0.64,1.64-0.64c0.602,0,1.132,0.19,1.602,0.58c0.46,0.38,0.7,0.95,0.7,1.68c0,0.71-0.23,1.27-0.682,1.67
	C134.02,9.4,133.48,9.6,132.86,9.6z M135.15,14.39V27.8c0,0.93-0.22,1.631-0.658,2.11c-0.44,0.479-1,0.72-1.682,0.72
	c-0.68,0-1.229-0.25-1.66-0.73c-0.43-0.488-0.64-1.18-0.64-2.09V14.53c0-0.92,0.21-1.61,0.64-2.07c0.432-0.46,0.98-0.7,1.66-0.7
	c0.682,0,1.24,0.23,1.682,0.7C134.93,12.92,135.15,13.56,135.15,14.39z"/>
<path fill="#FFFFFF" d="M144.55,23.931V27.8c0,0.94-0.22,1.65-0.66,2.12c-0.438,0.47-1,0.71-1.68,0.71c-0.67,0-1.22-0.24-1.65-0.72
	c-0.43-0.479-0.648-1.181-0.648-2.11V14.88c0-2.08,0.75-3.13,2.26-3.13c0.77,0,1.32,0.25,1.67,0.73c0.34,0.49,0.53,1.21,0.56,2.16
	c0.552-0.95,1.12-1.67,1.71-2.16c0.58-0.49,1.36-0.73,2.342-0.73c0.979,0,1.92,0.25,2.84,0.73c0.92,0.49,1.38,1.13,1.38,1.94
	c0,0.57-0.2,1.03-0.59,1.4c-0.392,0.37-0.812,0.55-1.271,0.55c-0.17,0-0.58-0.1-1.229-0.31c-0.65-0.21-1.23-0.31-1.73-0.31
	c-0.68,0-1.24,0.18-1.67,0.53c-0.43,0.36-0.76,0.89-1,1.59c-0.24,0.7-0.398,1.54-0.49,2.51C144.6,21.351,144.55,22.53,144.55,23.931
	z"/>
<path fill="#FFFFFF" d="M166.57,22.33h-9.078c0.01,1.05,0.22,1.979,0.64,2.79c0.41,0.8,0.96,1.41,1.648,1.82
	c0.69,0.41,1.44,0.608,2.271,0.608c0.56,0,1.06-0.06,1.52-0.188c0.461-0.131,0.9-0.33,1.33-0.61c0.432-0.28,0.83-0.569,1.19-0.89
	c0.36-0.321,0.83-0.75,1.41-1.291c0.24-0.199,0.58-0.311,1.02-0.311c0.48,0,0.86,0.131,1.16,0.391c0.29,0.261,0.44,0.631,0.44,1.101
	c0,0.42-0.16,0.91-0.49,1.47c-0.33,0.562-0.82,1.1-1.49,1.61c-0.66,0.521-1.5,0.94-2.5,1.28s-2.16,0.51-3.46,0.51
	c-2.979,0-5.3-0.85-6.95-2.551c-1.648-1.699-2.479-4.01-2.479-6.92c0-1.369,0.2-2.641,0.608-3.811c0.41-1.17,1-2.18,1.78-3.02
	c0.78-0.84,1.75-1.48,2.891-1.93c1.141-0.45,2.409-0.67,3.811-0.67c1.81,0,3.37,0.38,4.66,1.15c1.3,0.76,2.27,1.75,2.91,2.97
	c0.648,1.21,0.97,2.45,0.97,3.7c0,1.17-0.33,1.92-1,2.271C168.72,22.16,167.78,22.33,166.57,22.33z M157.5,19.69h8.41
	c-0.11-1.59-0.54-2.771-1.28-3.562s-1.72-1.18-2.93-1.18c-1.16,0-2.102,0.4-2.852,1.2C158.1,16.95,157.65,18.13,157.5,19.69z"/>
<path fill="#FFFFFF" d="M173.42,27.8V7.68c0-0.93,0.21-1.63,0.62-2.11s0.97-0.71,1.67-0.71s1.27,0.24,1.7,0.71
	c0.43,0.47,0.648,1.18,0.648,2.12V27.8c0,0.94-0.22,1.65-0.648,2.12c-0.44,0.47-1,0.71-1.69,0.71c-0.68,0-1.229-0.25-1.66-0.73
	C173.63,29.399,173.42,28.71,173.42,27.8z"/>
<path fill="#FFFFFF" d="M187.13,31.2l0.42-1.04l-5.71-14.38c-0.35-0.83-0.53-1.43-0.53-1.8c0-0.4,0.102-0.77,0.312-1.1
	c0.198-0.34,0.479-0.61,0.84-0.82c0.358-0.2,0.729-0.31,1.108-0.31c0.672,0,1.172,0.21,1.512,0.64c0.34,0.42,0.64,1.03,0.898,1.83
	l3.932,11.419l3.72-10.62c0.29-0.86,0.56-1.53,0.8-2.02s0.49-0.82,0.76-0.99c0.271-0.17,0.642-0.26,1.13-0.26
	c0.352,0,0.69,0.09,1.012,0.28c0.318,0.189,0.568,0.439,0.75,0.76c0.18,0.32,0.26,0.65,0.26,1c-0.05,0.21-0.12,0.52-0.22,0.92
	c-0.102,0.4-0.23,0.8-0.37,1.21l-6.05,15.84c-0.521,1.39-1.03,2.49-1.53,3.28s-1.16,1.4-1.98,1.83c-0.818,0.42-1.93,0.64-3.318,0.64
	c-1.36,0-2.381-0.149-3.062-0.44c-0.68-0.299-1.02-0.828-1.02-1.618c0-0.53,0.16-0.94,0.479-1.229c0.32-0.289,0.8-0.431,1.44-0.431
	c0.25,0,0.49,0.04,0.729,0.101c0.29,0.069,0.551,0.101,0.762,0.101c0.528,0,0.948-0.08,1.26-0.24c0.31-0.16,0.58-0.431,0.818-0.819
	C186.53,32.53,186.81,31.96,187.13,31.2z"/>
<path fill="#FFFFFF" d="M211.7,20.49h-4.62v7.05c0,1.01-0.24,1.779-0.71,2.3c-0.48,0.521-1.08,0.78-1.802,0.78
	c-0.76,0-1.368-0.26-1.84-0.77c-0.47-0.512-0.7-1.271-0.7-2.271V8.38c0-1.11,0.25-1.9,0.762-2.38c0.51-0.48,1.318-0.71,2.43-0.71
	h6.48c1.908,0,3.39,0.15,4.42,0.44c1.02,0.28,1.898,0.75,2.64,1.41c0.74,0.66,1.31,1.46,1.69,2.41c0.38,0.95,0.578,2.02,0.578,3.21
	c0,2.54-0.778,4.46-2.34,5.771C217.13,19.84,214.8,20.49,211.7,20.49z M210.48,9.07h-3.398v7.61h3.398c1.19,0,2.182-0.12,2.98-0.37
	s1.41-0.66,1.83-1.22c0.42-0.57,0.63-1.31,0.63-2.23c0-1.1-0.32-1.99-0.97-2.69C214.23,9.44,212.73,9.07,210.48,9.07z"/>
<path fill="#FFFFFF" d="M235.66,22.33h-9.08c0.01,1.05,0.22,1.979,0.64,2.79c0.41,0.8,0.96,1.41,1.65,1.82
	c0.688,0.41,1.438,0.608,2.27,0.608c0.562,0,1.062-0.06,1.521-0.188c0.46-0.131,0.898-0.33,1.33-0.61
	c0.43-0.28,0.828-0.569,1.188-0.89c0.36-0.321,0.83-0.75,1.41-1.291c0.24-0.199,0.58-0.311,1.02-0.311c0.48,0,0.86,0.131,1.16,0.391
	c0.29,0.261,0.44,0.631,0.44,1.101c0,0.42-0.16,0.91-0.49,1.47c-0.33,0.562-0.83,1.1-1.49,1.61c-0.66,0.521-1.5,0.94-2.5,1.28
	s-2.16,0.51-3.46,0.51c-2.979,0-5.3-0.85-6.95-2.551c-1.648-1.699-2.479-4.01-2.479-6.92c0-1.369,0.21-2.641,0.61-3.811
	c0.408-1.17,1-2.18,1.79-3.02c0.778-0.84,1.738-1.48,2.89-1.93c1.14-0.45,2.41-0.67,3.81-0.67c1.812,0,3.37,0.38,4.67,1.15
	c1.302,0.76,2.271,1.75,2.92,2.97c0.642,1.21,0.972,2.45,0.972,3.7c0,1.17-0.34,1.92-1,2.271
	C237.81,22.16,236.87,22.33,235.66,22.33z M226.59,19.69H235c-0.11-1.59-0.54-2.771-1.28-3.562s-1.72-1.18-2.93-1.18
	c-1.16,0-2.11,0.4-2.852,1.2C227.2,16.95,226.75,18.13,226.59,19.69z"/>
<path fill="#FFFFFF" d="M243.65,12.17h0.512V9.38c0-0.75,0.02-1.33,0.06-1.76c0.04-0.42,0.15-0.79,0.33-1.1
	c0.18-0.32,0.44-0.58,0.78-0.77c0.34-0.2,0.72-0.3,1.14-0.3c0.59,0,1.12,0.22,1.6,0.66c0.32,0.29,0.521,0.65,0.602,1.08
	c0.09,0.42,0.13,1.03,0.13,1.81v3.16h1.7c0.66,0,1.16,0.16,1.5,0.47c0.35,0.31,0.52,0.71,0.52,1.2c0,0.62-0.25,1.06-0.739,1.31
	s-1.199,0.37-2.119,0.37h-0.87v8.53c0,0.73,0.02,1.279,0.08,1.67c0.05,0.391,0.188,0.71,0.409,0.95
	c0.221,0.239,0.579,0.36,1.079,0.36c0.271,0,0.642-0.052,1.102-0.142c0.47-0.101,0.83-0.14,1.09-0.14c0.38,0,0.71,0.148,1.01,0.449
	s0.45,0.67,0.45,1.109c0,0.75-0.41,1.32-1.229,1.721c-0.819,0.399-1.989,0.601-3.521,0.601c-1.45,0-2.55-0.25-3.3-0.729
	c-0.75-0.49-1.24-1.16-1.47-2.021c-0.23-0.86-0.352-2.011-0.352-3.45v-8.9h-0.609c-0.671,0-1.181-0.16-1.529-0.48
	c-0.352-0.32-0.53-0.72-0.53-1.21c0-0.49,0.18-0.89,0.55-1.2C242.41,12.32,242.95,12.17,243.65,12.17z"/>
<path fill="#FFFFFF" d="M270.65,24.56c0,1.28-0.31,2.381-0.93,3.291c-0.62,0.909-1.54,1.601-2.76,2.069
	c-1.22,0.47-2.7,0.71-4.44,0.71c-1.67,0-3.09-0.25-4.278-0.77c-1.19-0.51-2.07-1.15-2.632-1.91c-0.568-0.76-0.85-1.53-0.85-2.301
	c0-0.51,0.18-0.949,0.54-1.311s0.82-0.54,1.38-0.54c0.49,0,0.86,0.12,1.12,0.36c0.26,0.238,0.51,0.568,0.75,1
	c0.479,0.83,1.04,1.449,1.71,1.85c0.66,0.41,1.57,0.61,2.71,0.61c0.93,0,1.69-0.21,2.29-0.62c0.59-0.41,0.89-0.891,0.89-1.42
	c0-0.82-0.31-1.41-0.93-1.79c-0.62-0.37-1.63-0.729-3.05-1.07c-1.602-0.399-2.9-0.81-3.9-1.25c-1-0.438-1.81-1.01-2.41-1.72
	c-0.6-0.71-0.898-1.59-0.898-2.63c0-0.93,0.28-1.81,0.83-2.63c0.56-0.83,1.37-1.49,2.46-1.98c1.08-0.49,2.39-0.74,3.92-0.74
	c1.2,0,2.28,0.13,3.24,0.38s1.76,0.58,2.398,1c0.642,0.42,1.13,0.88,1.46,1.39c0.33,0.51,0.5,1.01,0.5,1.5
	c0,0.53-0.18,0.97-0.528,1.31c-0.36,0.34-0.86,0.51-1.521,0.51c-0.479,0-0.88-0.14-1.22-0.41c-0.33-0.27-0.722-0.68-1.15-1.22
	c-0.35-0.45-0.77-0.81-1.24-1.09c-0.479-0.27-1.118-0.41-1.938-0.41c-0.84,0-1.53,0.18-2.09,0.54c-0.562,0.36-0.83,0.8-0.83,1.33
	c0,0.49,0.2,0.89,0.608,1.2c0.41,0.31,0.96,0.57,1.65,0.77c0.69,0.2,1.64,0.45,2.85,0.75c1.44,0.351,2.61,0.771,3.53,1.261
	c0.91,0.489,1.602,1.06,2.07,1.72C270.42,22.95,270.65,23.71,270.65,24.56z"/>
<path fill="#FFFFFF" d="M273.4,5.6c1.75,0,3.15,1.42,3.15,3.21c0,1.81-1.4,3.22-3.16,3.22c-1.75,0-3.18-1.41-3.18-3.22
	c0-1.78,1.42-3.21,3.18-3.21H273.4z M273.38,6.1c-1.41,0-2.562,1.21-2.562,2.71c0,1.52,1.15,2.72,2.58,2.72
	c1.432,0.01,2.562-1.2,2.562-2.71c0-1.51-1.142-2.72-2.562-2.72H273.38z M272.78,10.67h-0.568V7.09c0.3-0.04,0.58-0.09,1.01-0.09
	c0.54,0,0.9,0.11,1.11,0.27s0.33,0.4,0.33,0.74c0,0.47-0.312,0.75-0.7,0.87v0.03c0.31,0.06,0.528,0.34,0.6,0.87
	c0.08,0.56,0.17,0.77,0.23,0.88h-0.602c-0.09-0.11-0.17-0.44-0.238-0.91c-0.092-0.46-0.312-0.63-0.771-0.63h-0.4V10.67L272.78,10.67
	z M272.78,8.69h0.41c0.472,0,0.87-0.17,0.87-0.61c0-0.31-0.229-0.63-0.87-0.63c-0.188,0-0.31,0.01-0.41,0.03V8.69z"/>
<g>
	<path fill="#FCB12B" d="M14.863,13.982c4.409,3.07,6.944,11.796,2.931,13.891c-4.016,2.087-9.663,2.464-14.14-2.011
		c-4.475-4.477-3.932-10.375-0.502-11.96C6.582,12.309,11.014,11.306,14.863,13.982z"/>
	<path fill="#FCB12B" d="M4.645,11.08c-1.86-0.474-2.05-2.241-0.534-4.648C5.62,4.026,7.948,3.62,7.87,4.604
		c-0.077,0.98-0.136,2.608-0.785,3.801C6.482,9.504,5.461,11.286,4.645,11.08z"/>
	<path fill="#FCB12B" d="M13.844,7.022c-0.998,2.18-2.611,3.583-3.595,3.131c-0.985-0.447-0.973-2.587,0.03-4.766
		c0.998-2.181,2.613-3.583,3.595-3.135C14.855,2.704,14.845,4.84,13.844,7.022z"/>
	<path fill="#FCB12B" d="M20.719,9.611c-1.078,2.362-2.877,3.858-4.008,3.342c-1.135-0.521-1.172-2.857-0.089-5.222
		c1.083-2.364,2.881-3.859,4.015-3.344C21.766,4.91,21.802,7.246,20.719,9.611z"/>
	<path fill="#FCB12B" d="M24.474,16.124c-1.337,2.023-3.16,3.172-4.078,2.564c-0.918-0.605-0.581-2.733,0.753-4.757
		c1.337-2.022,3.163-3.168,4.079-2.56C26.144,11.973,25.803,14.104,24.474,16.124z"/>
	<path fill="#FCB12B" d="M38.954,26.897c2.941,2.697,2.842,10.554,9.004,7.898c6.171-2.652,1.493-6.212,2.086-10.007
		c0.585-3.802,3.823-7.454,0.291-10.693c-3.532-3.241-5.476,1.242-9.612,1.419c-4.134,0.179-10.263-2.069-10.003,3.95
		C30.981,25.487,35.619,23.845,38.954,26.897z"/>
	<path fill="#FCB12B" d="M43.119,9.694c-2.234,2.203-3.721,3.02-5.624,1.946c-1.907-1.068-2.743-3.193-1.27-5.82
		c1.48-2.625,4.71-4.766,6.613-3.694C44.746,3.191,45.267,7.578,43.119,9.694z"/>
	<path fill="#FCB12B" d="M55.64,21.858c-2.239,2.168-3.093,3.584-2.125,5.313c0.968,1.731,3.013,2.429,5.645,0.953
		c2.628-1.476,4.849-4.571,3.876-6.296C62.062,20.099,57.799,19.783,55.64,21.858z"/>
	<path fill="#FCB12B" d="M53.01,9.063c-1.8,1.966-2.908,2.456-5.429,1.572c-2.063-0.725-1.46-4.26,0.337-6.224
		c1.798-1.966,5.236-3.106,6.846-1.636C56.373,4.245,54.801,7.095,53.01,9.063z"/>
	<path fill="#FCB12B" d="M55.348,11.164c-1.96,1.801-2.454,2.904-1.569,5.43c0.718,2.057,4.256,1.457,6.224-0.34
		c1.965-1.795,3.108-5.235,1.636-6.847C60.166,7.804,57.314,9.37,55.348,11.164z"/>
</g>
</svg>
